<svg xmlns="http://www.w3.org/2000/svg" width="30" height="30" viewBox="0 0 30 30"><metadata></metadata><defs><style>      .cls-1 {        fill: #e92d74;        fill-rule: evenodd;      }    </style></defs><path id="mail" class="cls-1" d="M581,6509.93a6.072,6.072,0,0,1,6.063,6.07,0.874,0.874,0,0,0,1.748,0,7.817,7.817,0,1,0-1.064,3.93,0.873,0.873,0,0,0-1.508-.88A6.064,6.064,0,1,1,581,6509.93Zm14.956,4.91a15,15,0,1,0-16.171,16.11c0.4,0.03.8,0.05,1.2,0.05a15,15,0,0,0,10.626-4.4,0.867,0.867,0,0,0,0-1.23,0.876,0.876,0,0,0-1.236,0,13.252,13.252,0,1,1,3.843-10.4,13.49,13.49,0,0,1-.058,2.63,2.8,2.8,0,0,1-1.487,2.15,2.408,2.408,0,0,1-2.287-.01,0.875,0.875,0,1,0-.833,1.54,4.159,4.159,0,0,0,3.922.02,4.526,4.526,0,0,0,2.42-3.49A15.265,15.265,0,0,0,595.956,6514.84Z" transform="translate(-566 -6501)"></path></svg>